<svg width="500" height="500" viewBox="0 0 500 500" fill="none" xmlns="http://www.w3.org/2000/svg">
<g clip-path="url(#clip0_1107_21)">
<path d="M249.951 332.03C210.459 332.03 177.517 304.067 169.697 266.914H38.3187C47.6051 374.951 138.221 459.718 248.583 459.718C358.944 459.718 449.658 374.951 458.846 266.914H330.205C322.385 304.165 289.443 332.03 249.951 332.03Z" fill="white"/>
<path d="M296.872 454.243C384.457 433.711 451.026 358.721 458.847 266.914H407.038C401.857 350.215 358.162 420.806 296.872 454.243Z" fill="#DFDFDF"/>
<path d="M298.338 250C298.24 250 298.24 250 298.338 250C298.24 244.036 297.165 238.365 295.21 233.086C288.368 214.705 270.675 201.701 249.951 201.701C229.228 201.701 211.535 214.803 204.692 233.086C202.737 238.365 201.662 244.036 201.662 250H201.76C201.76 255.964 202.835 261.635 204.79 266.914C211.632 285.295 229.326 298.299 250.049 298.299C270.772 298.299 288.465 285.197 295.308 266.914C297.263 261.732 298.338 255.964 298.338 250Z" fill="white"/>
<path d="M250.049 168.068C289.541 168.068 322.483 196.03 330.303 233.183H461.681C452.395 125.049 361.779 40.2816 251.32 40.2816C140.86 40.2816 50.3421 125.049 41.0557 233.086H169.795C177.615 195.933 210.557 168.068 250.049 168.068Z" fill="#E53935"/>
<path d="M407.038 233.086H461.584C453.568 139.715 384.751 63.6488 294.917 44.7791C357.282 77.7278 401.759 149.003 407.038 233.086Z" fill="#C62828"/>
<path d="M251.32 40.2816C361.779 40.2816 452.395 125.049 461.584 233.086H330.205C322.385 195.933 289.443 167.97 249.951 167.97C210.459 167.97 177.517 195.933 169.697 233.086H41.0557C50.3421 125.049 140.958 40.2816 251.32 40.2816ZM295.21 233.086C297.165 238.365 298.24 244.036 298.24 250H298.338C298.338 255.964 297.263 261.635 295.308 266.914C288.465 285.295 270.772 298.299 250.049 298.299C229.326 298.299 211.632 285.197 204.79 266.914C202.835 261.635 201.76 255.964 201.76 250H201.662C201.662 244.036 202.737 238.365 204.692 233.086C211.535 214.705 229.228 201.701 249.951 201.701C270.674 201.701 288.368 214.803 295.21 233.086ZM248.583 459.816C138.123 459.816 47.5073 375.049 38.3187 267.012H169.697C177.517 304.165 210.459 332.127 249.951 332.127C289.443 332.127 322.385 304.165 330.205 267.012H458.944C449.658 374.951 359.042 459.816 248.583 459.816ZM249.951 0C111.926 0 0 111.948 0 250C0 388.052 111.926 500 249.951 500C387.977 500 500 388.15 500 250C500 111.85 388.074 0 249.951 0Z" fill="#111111"/>
</g>
<defs>
<clipPath id="clip0_1107_21">
<rect width="500" height="500" fill="white"/>
</clipPath>
</defs>
</svg>
