<svg width="500" height="500" viewBox="0 0 500 500" fill="none" xmlns="http://www.w3.org/2000/svg">
<path d="M249.951 332.03C210.459 332.03 177.517 304.067 169.697 266.914H38.3187C47.6051 374.951 138.221 459.718 248.583 459.718C358.944 459.718 449.658 374.951 458.846 266.914H330.205C322.385 304.165 289.443 332.03 249.951 332.03Z" fill="white"/>
<path d="M298.338 250C298.24 250 298.24 250 298.338 250C298.24 244.036 297.165 238.365 295.21 233.086C288.368 214.705 270.675 201.701 249.951 201.701C229.228 201.701 211.535 214.803 204.692 233.086C202.737 238.365 201.662 244.036 201.662 250H201.76C201.76 255.964 202.835 261.635 204.79 266.914C211.632 285.295 229.326 298.299 250.049 298.299C270.772 298.299 288.465 285.197 295.308 266.914C297.263 261.732 298.338 255.964 298.338 250Z" fill="white"/>
<path d="M250.049 168.068C289.541 168.068 322.483 196.03 330.303 233.183H461.681C452.395 125.049 361.779 40.2816 251.32 40.2816C140.86 40.2816 50.3421 125.049 41.0557 233.086H169.795C177.615 195.933 210.557 168.068 250.049 168.068Z" fill="white"/>
</svg>
